<mxfile host="app.diagrams.net" modified="2023-03-28T12:00:28.913Z" agent="Mozilla/5.0 (Windows NT 10.0; Win64; x64) AppleWebKit/537.36 (KHTML, like Gecko) Chrome/111.0.0.0 Safari/537.36" etag="EAIUXYROxW9jQQ4SWWld" version="21.1.1" type="device">
  <diagram name="Seite-1" id="VrBfu4TxZgrukyA4LXs0">
    <mxGraphModel dx="1815" dy="1281" grid="1" gridSize="10" guides="1" tooltips="1" connect="1" arrows="1" fold="1" page="1" pageScale="1" pageWidth="827" pageHeight="1169" math="0" shadow="0">
      <root>
        <mxCell id="0" />
        <mxCell id="1" parent="0" />
        <mxCell id="5fbiJl8YK67mVhfQz9nL-18" style="edgeStyle=orthogonalEdgeStyle;rounded=0;orthogonalLoop=1;jettySize=auto;html=1;entryX=0;entryY=0.5;entryDx=0;entryDy=0;" edge="1" parent="1" source="5fbiJl8YK67mVhfQz9nL-23" target="5fbiJl8YK67mVhfQz9nL-7">
          <mxGeometry relative="1" as="geometry">
            <Array as="points" />
          </mxGeometry>
        </mxCell>
        <mxCell id="5fbiJl8YK67mVhfQz9nL-4" value="agrirouter© middleware" style="rounded=0;whiteSpace=wrap;html=1;verticalAlign=top;fillColor=#f5f5f5;fontColor=#333333;strokeColor=#666666;" vertex="1" parent="1">
          <mxGeometry x="270" y="400" width="110" height="280" as="geometry" />
        </mxCell>
        <mxCell id="5fbiJl8YK67mVhfQz9nL-3" value="agrirouter©" style="rounded=0;whiteSpace=wrap;html=1;verticalAlign=top;fillColor=#f5f5f5;fontColor=#333333;strokeColor=#666666;" vertex="1" parent="1">
          <mxGeometry x="580" y="400" width="230" height="280" as="geometry" />
        </mxCell>
        <mxCell id="5fbiJl8YK67mVhfQz9nL-1" value="endpoint" style="rounded=0;whiteSpace=wrap;html=1;fillColor=#dae8fc;strokeColor=#6c8ebf;glass=0;" vertex="1" parent="1">
          <mxGeometry x="635" y="510" width="120" height="60" as="geometry" />
        </mxCell>
        <mxCell id="5fbiJl8YK67mVhfQz9nL-5" value="inbox" style="rounded=0;whiteSpace=wrap;html=1;fillColor=#e1d5e7;strokeColor=#9673a6;glass=0;" vertex="1" parent="1">
          <mxGeometry x="635" y="485" width="120" height="25" as="geometry" />
        </mxCell>
        <mxCell id="5fbiJl8YK67mVhfQz9nL-16" style="edgeStyle=orthogonalEdgeStyle;rounded=0;orthogonalLoop=1;jettySize=auto;html=1;" edge="1" parent="1" source="5fbiJl8YK67mVhfQz9nL-28">
          <mxGeometry relative="1" as="geometry">
            <mxPoint x="320" y="680" as="targetPoint" />
            <Array as="points" />
          </mxGeometry>
        </mxCell>
        <mxCell id="5fbiJl8YK67mVhfQz9nL-6" value="outbox" style="rounded=0;whiteSpace=wrap;html=1;fillColor=#ffe6cc;strokeColor=#d79b00;glass=0;" vertex="1" parent="1">
          <mxGeometry x="635" y="570" width="120" height="25" as="geometry" />
        </mxCell>
        <mxCell id="5fbiJl8YK67mVhfQz9nL-9" style="edgeStyle=orthogonalEdgeStyle;rounded=0;orthogonalLoop=1;jettySize=auto;html=1;" edge="1" parent="1" source="5fbiJl8YK67mVhfQz9nL-7" target="5fbiJl8YK67mVhfQz9nL-3">
          <mxGeometry relative="1" as="geometry" />
        </mxCell>
        <mxCell id="5fbiJl8YK67mVhfQz9nL-7" value="agrirouter© status page" style="rounded=0;whiteSpace=wrap;html=1;verticalAlign=top;fillColor=#f5f5f5;fontColor=#333333;strokeColor=#666666;" vertex="1" parent="1">
          <mxGeometry x="580" y="210" width="230" height="70" as="geometry" />
        </mxCell>
        <mxCell id="5fbiJl8YK67mVhfQz9nL-11" style="edgeStyle=orthogonalEdgeStyle;rounded=0;orthogonalLoop=1;jettySize=auto;html=1;entryX=0;entryY=0.5;entryDx=0;entryDy=0;" edge="1" parent="1" source="5fbiJl8YK67mVhfQz9nL-10" target="5fbiJl8YK67mVhfQz9nL-4">
          <mxGeometry relative="1" as="geometry" />
        </mxCell>
        <mxCell id="5fbiJl8YK67mVhfQz9nL-12" value="GET &lt;br&gt;&lt;br&gt;.../endpoint/{externalEndpointId/health}" style="edgeLabel;html=1;align=center;verticalAlign=middle;resizable=0;points=[];" vertex="1" connectable="0" parent="5fbiJl8YK67mVhfQz9nL-11">
          <mxGeometry x="-0.2227" y="-3" relative="1" as="geometry">
            <mxPoint x="30" y="-3" as="offset" />
          </mxGeometry>
        </mxCell>
        <mxCell id="5fbiJl8YK67mVhfQz9nL-10" value="3rd party application" style="shape=umlActor;verticalLabelPosition=bottom;verticalAlign=top;html=1;outlineConnect=0;" vertex="1" parent="1">
          <mxGeometry x="-90" y="510" width="30" height="60" as="geometry" />
        </mxCell>
        <mxCell id="5fbiJl8YK67mVhfQz9nL-13" style="edgeStyle=orthogonalEdgeStyle;rounded=0;orthogonalLoop=1;jettySize=auto;html=1;entryX=0;entryY=0.5;entryDx=0;entryDy=0;" edge="1" parent="1" source="5fbiJl8YK67mVhfQz9nL-25" target="5fbiJl8YK67mVhfQz9nL-6">
          <mxGeometry relative="1" as="geometry">
            <Array as="points">
              <mxPoint x="524" y="583" />
            </Array>
          </mxGeometry>
        </mxCell>
        <mxCell id="5fbiJl8YK67mVhfQz9nL-21" style="edgeStyle=orthogonalEdgeStyle;rounded=0;orthogonalLoop=1;jettySize=auto;html=1;entryX=0.5;entryY=0;entryDx=0;entryDy=0;" edge="1" parent="1" source="5fbiJl8YK67mVhfQz9nL-17" target="5fbiJl8YK67mVhfQz9nL-25">
          <mxGeometry relative="1" as="geometry">
            <mxPoint x="485" y="540" as="targetPoint" />
          </mxGeometry>
        </mxCell>
        <mxCell id="5fbiJl8YK67mVhfQz9nL-17" value="custom MQTT health message" style="shape=note;whiteSpace=wrap;html=1;backgroundOutline=1;darkOpacity=0.05;fillColor=#d5e8d4;strokeColor=#82b366;" vertex="1" parent="1">
          <mxGeometry x="430" y="440" width="110" height="90" as="geometry" />
        </mxCell>
        <mxCell id="5fbiJl8YK67mVhfQz9nL-20" style="edgeStyle=orthogonalEdgeStyle;rounded=0;orthogonalLoop=1;jettySize=auto;html=1;entryX=0.5;entryY=1;entryDx=0;entryDy=0;" edge="1" parent="1" source="5fbiJl8YK67mVhfQz9nL-19" target="5fbiJl8YK67mVhfQz9nL-28">
          <mxGeometry relative="1" as="geometry">
            <mxPoint x="490" y="790" as="targetPoint" />
          </mxGeometry>
        </mxCell>
        <mxCell id="5fbiJl8YK67mVhfQz9nL-19" value="&lt;b&gt;ECHO&lt;/b&gt;&lt;br&gt;&lt;br&gt;custom MQTT health message" style="shape=note;whiteSpace=wrap;html=1;backgroundOutline=1;darkOpacity=0.05;fillColor=#d5e8d4;strokeColor=#82b366;" vertex="1" parent="1">
          <mxGeometry x="359" y="820" width="110" height="90" as="geometry" />
        </mxCell>
        <mxCell id="5fbiJl8YK67mVhfQz9nL-24" value="" style="edgeStyle=orthogonalEdgeStyle;rounded=0;orthogonalLoop=1;jettySize=auto;html=1;entryX=0;entryY=0.5;entryDx=0;entryDy=0;" edge="1" parent="1" source="5fbiJl8YK67mVhfQz9nL-4" target="5fbiJl8YK67mVhfQz9nL-23">
          <mxGeometry relative="1" as="geometry">
            <mxPoint x="320" y="400" as="sourcePoint" />
            <mxPoint x="580" y="245" as="targetPoint" />
            <Array as="points">
              <mxPoint x="320" y="245" />
            </Array>
          </mxGeometry>
        </mxCell>
        <mxCell id="5fbiJl8YK67mVhfQz9nL-23" value="1" style="ellipse;whiteSpace=wrap;html=1;aspect=fixed;fillColor=#fff2cc;strokeColor=#d6b656;fontStyle=1" vertex="1" parent="1">
          <mxGeometry x="450" y="230" width="30" height="30" as="geometry" />
        </mxCell>
        <mxCell id="5fbiJl8YK67mVhfQz9nL-27" value="" style="edgeStyle=orthogonalEdgeStyle;rounded=0;orthogonalLoop=1;jettySize=auto;html=1;entryX=0;entryY=0.5;entryDx=0;entryDy=0;" edge="1" parent="1" source="5fbiJl8YK67mVhfQz9nL-4" target="5fbiJl8YK67mVhfQz9nL-25">
          <mxGeometry relative="1" as="geometry">
            <mxPoint x="380" y="583" as="sourcePoint" />
            <mxPoint x="635" y="583" as="targetPoint" />
            <Array as="points">
              <mxPoint x="410" y="580" />
              <mxPoint x="410" y="580" />
            </Array>
          </mxGeometry>
        </mxCell>
        <mxCell id="5fbiJl8YK67mVhfQz9nL-25" value="2" style="ellipse;whiteSpace=wrap;html=1;aspect=fixed;fillColor=#fff2cc;strokeColor=#d6b656;fontStyle=1" vertex="1" parent="1">
          <mxGeometry x="470" y="565" width="30" height="30" as="geometry" />
        </mxCell>
        <mxCell id="5fbiJl8YK67mVhfQz9nL-28" value="3" style="ellipse;whiteSpace=wrap;html=1;aspect=fixed;fillColor=#fff2cc;strokeColor=#d6b656;fontStyle=1" vertex="1" parent="1">
          <mxGeometry x="399" y="750" width="30" height="30" as="geometry" />
        </mxCell>
        <mxCell id="5fbiJl8YK67mVhfQz9nL-30" style="edgeStyle=orthogonalEdgeStyle;rounded=0;orthogonalLoop=1;jettySize=auto;html=1;entryX=1;entryY=0.5;entryDx=0;entryDy=0;exitX=0.5;exitY=1;exitDx=0;exitDy=0;" edge="1" parent="1" source="5fbiJl8YK67mVhfQz9nL-6" target="5fbiJl8YK67mVhfQz9nL-28">
          <mxGeometry relative="1" as="geometry">
            <Array as="points">
              <mxPoint x="695" y="765" />
            </Array>
          </mxGeometry>
        </mxCell>
      </root>
    </mxGraphModel>
  </diagram>
</mxfile>
